<svg width="7" height="7" viewBox="0 0 7 7" fill="none" xmlns="http://www.w3.org/2000/svg">
<path fill-rule="evenodd" clip-rule="evenodd" d="M0.303901 4.86023C-0.1013 5.2355 -0.1013 5.84394 0.303901 6.21921C0.709102 6.59449 1.36606 6.59449 1.77126 6.21921L3.23995 4.859L4.70863 6.21921C5.11383 6.59449 5.77079 6.59449 6.17599 6.21921C6.5812 5.84394 6.5812 5.2355 6.17599 4.86023L4.70731 3.50001L6.17599 2.1398C6.5812 1.76453 6.5812 1.15609 6.17599 0.780815C5.77079 0.405541 5.11383 0.405541 4.70863 0.780815L3.23995 2.14103L1.77126 0.780815C1.36606 0.405541 0.709102 0.405541 0.303901 0.780815C-0.1013 1.15609 -0.1013 1.76453 0.303901 2.1398L1.77259 3.50001L0.303901 4.86023Z" fill="#414145"/>
</svg>
