<svg width="70" height="62" viewBox="0 0 70 62" fill="none" xmlns="http://www.w3.org/2000/svg">
<path d="M67.6572 42.1404L46.6051 7.20716C43.8418 2.62336 39.615 0 35 0C30.385 0 26.1582 2.62336 23.395 7.20007L2.34277 42.1404C-0.456121 46.7809 -0.76236 51.7299 1.50595 55.7181C3.7707 59.7099 8.19336 62 13.6345 62H56.3655C61.8066 62 66.2293 59.7099 68.4941 55.7217C70.7624 51.7334 70.4561 46.7845 67.6572 42.1404ZM35 49.7659C31.959 49.7659 29.4806 47.3021 29.4806 44.2746C29.4806 41.2435 31.9554 38.7761 35 38.7761C38.0446 38.7761 40.5194 41.2435 40.5194 44.2746C40.5194 47.3021 38.041 49.7659 35 49.7659ZM40.815 23.4472C40.7758 23.5571 35.8261 35.7416 35.8261 35.7416C35.6908 36.0748 35.3632 36.2946 35.0036 36.2946C34.6439 36.2946 34.3163 36.0748 34.181 35.7416L29.2277 23.5535C28.9286 22.8154 28.7727 22.0275 28.7684 21.2315C28.7684 17.8105 31.5637 15.0276 35 15.0276C36.0092 15.0302 37.0028 15.2765 37.8954 15.7454C38.788 16.2142 39.553 16.8917 40.1248 17.7196C40.6966 18.5475 41.0581 19.5012 41.1783 20.4988C41.2986 21.4964 41.1739 22.5081 40.815 23.4472Z" fill="#D54147"/>
</svg>
